<?xml version="1.0" encoding="UTF-8" standalone="no"?>
<svg
   id="svg6"
   version="1.1"
   width="24"
   height="24"
   sodipodi:docname="media-seek-backward-symbolic.svg"
   inkscape:version="1.2.2 (b0a8486541, 2022-12-01)"
   xmlns:inkscape="http://www.inkscape.org/namespaces/inkscape"
   xmlns:sodipodi="http://sodipodi.sourceforge.net/DTD/sodipodi-0.dtd"
   xmlns="http://www.w3.org/2000/svg"
   xmlns:svg="http://www.w3.org/2000/svg"
   xmlns:rdf="http://www.w3.org/1999/02/22-rdf-syntax-ns#"
   xmlns:cc="http://creativecommons.org/ns#"
   xmlns:dc="http://purl.org/dc/elements/1.1/">
  <sodipodi:namedview
     id="namedview137"
     pagecolor="#ffffff"
     bordercolor="#666666"
     borderopacity="1.0"
     inkscape:showpageshadow="2"
     inkscape:pageopacity="0.0"
     inkscape:pagecheckerboard="0"
     inkscape:deskcolor="#d1d1d1"
     showgrid="false"
     inkscape:zoom="43.041667"
     inkscape:cx="8.5847047"
     inkscape:cy="12.023233"
     inkscape:current-layer="svg6" />
  <metadata
     id="metadata12">
    <rdf:RDF>
      <cc:Work
         rdf:about="">
        <dc:format>image/svg+xml</dc:format>
        <dc:type
           rdf:resource="http://purl.org/dc/dcmitype/StillImage" />
      </cc:Work>
    </rdf:RDF>
  </metadata>
  <defs
     id="defs10" />
  <path
     d="m 20.000492,6 c 0.552285,0 1,0.4477153 1,1 v 10 c 0,0.552285 -0.447715,1 -1,1 -0.16845,0 -0.319727,-0.05144 -0.458984,-0.125 L 12.000492,13.128906 V 17 c 0,0.552285 -0.447715,1 -1,1 -0.16845,0 -0.319727,-0.05144 -0.458984,-0.125 L 2.544922,12.876953 C 2.225497,12.71 2,12.385392 2,12 2,11.614608 2.225497,11.29 2.544922,11.123047 L 10.541508,6.125 C 10.680765,6.0514361 10.832042,6 11.000492,6 c 0.552285,0 1,0.4477153 1,1 v 3.871094 L 19.541508,6.125 C 19.680765,6.0514361 19.832042,6 20.000492,6 Z"
     style="font-variation-settings:normal;opacity:1;vector-effect:none;fill:#2e3436;fill-opacity:1;stroke:none;stroke-width:4;stroke-linecap:round;stroke-linejoin:round;stroke-miterlimit:4;stroke-dasharray:none;stroke-dashoffset:0;stroke-opacity:1;stop-color:#000000;stop-opacity:1"
     id="path980-3" />
</svg>
