<?xml version="1.0" encoding="UTF-8" standalone="no"?>
<svg
   version="1.1"
   viewBox="0 0 95.000004 95.000001"
   id="svg2"
   sodipodi:docname="track-rename.svg"
   width="95"
   height="95"
   inkscape:version="1.2.2 (b0a8486541, 2022-12-01)"
   xmlns:inkscape="http://www.inkscape.org/namespaces/inkscape"
   xmlns:sodipodi="http://sodipodi.sourceforge.net/DTD/sodipodi-0.dtd"
   xmlns:xlink="http://www.w3.org/1999/xlink"
   xmlns="http://www.w3.org/2000/svg"
   xmlns:svg="http://www.w3.org/2000/svg"
   xmlns:rdf="http://www.w3.org/1999/02/22-rdf-syntax-ns#"
   xmlns:cc="http://creativecommons.org/ns#"
   xmlns:dc="http://purl.org/dc/elements/1.1/">
  <sodipodi:namedview
     pagecolor="#ffffff"
     bordercolor="#666666"
     borderopacity="1"
     objecttolerance="10"
     gridtolerance="10"
     guidetolerance="10"
     inkscape:pageopacity="0"
     inkscape:pageshadow="2"
     inkscape:window-width="640"
     inkscape:window-height="480"
     id="namedview1959"
     showgrid="false"
     inkscape:zoom="6.6387258"
     inkscape:cx="47.674811"
     inkscape:cy="46.620392"
     inkscape:current-layer="svg2"
     inkscape:showpageshadow="2"
     inkscape:pagecheckerboard="0"
     inkscape:deskcolor="#d1d1d1" />
  <defs
     id="defs3">
    <linearGradient
       id="linearGradient3579">
      <stop
         offset="0"
         style="stop-color:#ffffff"
         id="stop3581" />
      <stop
         offset="1"
         style="stop-color:#ffffff;stop-opacity:0"
         id="stop3583" />
    </linearGradient>
    <linearGradient
       x1="-19.040001"
       x2="15.224"
       gradientTransform="matrix(1.2301006,-0.12762378,0.07839553,0.75561381,-19.61301,1.6906995)"
       y1="52.714001"
       gradientUnits="userSpaceOnUse"
       xlink:href="#linearGradient3579"
       y2="111.34"
       id="linearGradient10462" />
    <linearGradient
       x1="71.087997"
       x2="97.343002"
       gradientTransform="matrix(0.58593341,-0.06079165,0.16458205,1.5863073,-19.61301,1.6906995)"
       y1="-6.6212001"
       gradientUnits="userSpaceOnUse"
       xlink:href="#linearGradient3579"
       y2="37.164001"
       id="linearGradient10464" />
    <linearGradient
       x1="95.224998"
       x2="156.67999"
       gradientTransform="matrix(0.56518134,0,0,1.662298,-19.61301,1.6906995)"
       y1="4.4250998"
       gradientUnits="userSpaceOnUse"
       xlink:href="#linearGradient3579"
       y2="20.792999"
       id="linearGradient10466" />
    <linearGradient
       inkscape:collect="always"
       xlink:href="#linearGradient2966"
       id="linearGradient2554"
       gradientUnits="userSpaceOnUse"
       gradientTransform="matrix(0.38303379,4.91417e-4,4.91417e-4,0.38133145,15.78498,13.184213)"
       x1="48.90625"
       y1="17.376184"
       x2="50.988335"
       y2="22.250591" />
    <linearGradient
       id="linearGradient2966">
      <stop
         id="stop2968"
         offset="0"
         style="stop-color:#ffd1d1;stop-opacity:1;" />
      <stop
         style="stop-color:#ff1d1d;stop-opacity:1;"
         offset="0.5"
         id="stop3006" />
      <stop
         id="stop2970"
         offset="1"
         style="stop-color:#6f0000;stop-opacity:1;" />
    </linearGradient>
    <linearGradient
       inkscape:collect="always"
       xlink:href="#linearGradient2974"
       id="linearGradient2556"
       gradientUnits="userSpaceOnUse"
       gradientTransform="matrix(0.38303379,4.91417e-4,4.91417e-4,0.38133145,15.78498,13.184213)"
       x1="46"
       y1="19.8125"
       x2="47.6875"
       y2="22.625" />
    <linearGradient
       id="linearGradient2974">
      <stop
         id="stop2976"
         offset="0"
         style="stop-color:#c1c1c1;stop-opacity:1;" />
      <stop
         id="stop2978"
         offset="1"
         style="stop-color:#acacac;stop-opacity:1;" />
    </linearGradient>
    <radialGradient
       inkscape:collect="always"
       xlink:href="#linearGradient2984"
       id="radialGradient2558"
       gradientUnits="userSpaceOnUse"
       gradientTransform="matrix(1.1198241,0.00143669,9.9743742e-4,0.77399494,-5.6349514,2.5236372)"
       cx="29.053354"
       cy="27.640751"
       fx="29.053354"
       fy="27.640751"
       r="3.2408545" />
    <linearGradient
       id="linearGradient2984"
       inkscape:collect="always">
      <stop
         id="stop2986"
         offset="0"
         style="stop-color:#e7e2b8;stop-opacity:1;" />
      <stop
         id="stop2988"
         offset="1"
         style="stop-color:#e7e2b8;stop-opacity:0;" />
    </linearGradient>
    <linearGradient
       inkscape:collect="always"
       xlink:href="#linearGradient2994"
       id="linearGradient2560"
       gradientUnits="userSpaceOnUse"
       gradientTransform="matrix(0.38303379,4.91417e-4,4.91417e-4,0.38133145,15.725194,13.231797)"
       x1="25.71875"
       y1="31.046875"
       x2="25.514589"
       y2="30.703125" />
    <linearGradient
       id="linearGradient2994">
      <stop
         id="stop2996"
         offset="0"
         style="stop-color:#000000;stop-opacity:1;" />
      <stop
         id="stop2998"
         offset="1"
         style="stop-color:#c9c9c9;stop-opacity:1;" />
    </linearGradient>
  </defs>
  <g
     transform="matrix(0.7776247,0,0,0.7776247,14.352233,9.5110602)"
     id="layer1"
     style="fill:#808000;stroke-width:1.28597">
    <path
       id="path9681"
       style="fill:#808000;stroke-width:1.24645"
       d="M 67.26662,4.3061369 C 63.213133,10.822442 62.263248,19.403486 59.363192,26.682704 L 47.790109,63.280401 C 37.129108,51.167434 14.225258,58.678307 12.896389,74.871901 10.050224,90.079747 27.833809,103.83853 41.883377,96.871422 55.138144,89.905278 55.500651,73.002179 60.28303,60.527674 63.741385,49.067025 67.20071,37.606377 70.659065,26.145729 c 3.546559,9.273006 8.588701,22.320349 -0.791894,29.849638 -5.852452,2.76242 -4.153322,13.602736 3.123958,11.374384 C 85.728306,62.078506 90.450589,44.683017 84.675678,32.611729 80.392474,23.604303 74.972316,15.003001 69.923389,6.3619585 69.183836,5.6996564 68.696293,3.4244889 67.26662,4.3071061 Z"
       inkscape:connector-curvature="0" />
    <path
       id="path1291"
       style="fill:#808000;stroke-width:1.24645"
       d="M 67.9044,6.0396763 65.658601,13.155087 48.65179,67.023237 C 44.838681,61.648635 38.402729,58.372502 31.385214,59.100424 21.023718,60.175344 13.487643,69.455135 14.563533,79.817601 c 1.07492,10.362465 10.354711,17.89757 20.717177,16.82265 8.169008,-0.848111 14.500279,-6.834323 16.320568,-14.39269 L 70.377007,20.16194 c 1.639036,2.870009 3.566914,9.541494 4.889968,13.404035 1.57991,4.60791 2.451283,9.494969 1.797026,13.790774 -0.655226,4.296773 -2.585043,8.077896 -7.315081,11.386984 -1.261989,0.737614 -1.999604,2.119793 -1.912369,3.578544 0.08723,1.459721 0.98284,2.741096 2.32334,3.321689 1.34147,0.581562 2.897148,0.365414 4.021501,-0.568962 6.32061,-4.42181 9.60062,-10.453577 10.527242,-16.531869 C 85.635256,42.464843 85.071141,36.363288 82.563639,32.002542 77.659133,24.355002 74.614656,18.214677 71.991811,13.839392 70.783132,11.223429 69.267193,8.6395492 67.9044,6.0396763 Z"
       inkscape:connector-curvature="0" />
    <path
       id="path2057"
       style="fill:#808000;stroke-width:1.24645"
       d="M 27.85901,60.623147 C 20.786246,62.906747 16.961507,68.116573 15.773182,74.413921 22.21592,101.99644 29.740363,63.383628 48.139046,68.417047 48.495737,66.4882 39.451479,57.203562 27.85901,60.623147 Z"
       inkscape:connector-curvature="0" />
    <path
       id="path3587"
       style="fill:#808000;stroke-width:1.24645"
       d="M 49.534795,66.941818 C 54.18826,64.739637 63.786941,18.148766 69.865233,18.136166 68.081776,17.71938 67.760948,14.995731 67.649482,8.6456556 67.331561,9.6652307 49.743188,67.156608 49.534795,66.94143 Z"
       inkscape:connector-curvature="0" />
    <path
       id="path5873"
       style="fill:#808000;fill-rule:evenodd;stroke-width:1.24645"
       d="m 69.730504,18.398838 c 0,0 21.728126,32.82239 6.317702,34.825871 3.544621,-4.160107 3.698735,-16.02591 -6.317702,-34.825871 z"
       inkscape:connector-curvature="0" />
  </g>
  <metadata
     id="metadata21">
    <rdf:RDF>
      <cc:Work>
        <dc:format>image/svg+xml</dc:format>
        <dc:type
           rdf:resource="http://purl.org/dc/dcmitype/StillImage" />
        <cc:license
           rdf:resource="http://creativecommons.org/publicdomain/zero/1.0/" />
        <dc:publisher>
          <cc:Agent
             rdf:about="http://openclipart.org/">
            <dc:title>Openclipart</dc:title>
          </cc:Agent>
        </dc:publisher>
      </cc:Work>
      <cc:License
         rdf:about="http://creativecommons.org/publicdomain/zero/1.0/">
        <cc:permits
           rdf:resource="http://creativecommons.org/ns#Reproduction" />
        <cc:permits
           rdf:resource="http://creativecommons.org/ns#Distribution" />
        <cc:permits
           rdf:resource="http://creativecommons.org/ns#DerivativeWorks" />
      </cc:License>
    </rdf:RDF>
  </metadata>
  <g
     style="display:inline;stroke-width:3.77142"
     id="g1574"
     transform="matrix(2.6977876,-0.72659802,0.72287054,2.711699,-0.86327582,-82.520848)"
     inkscape:r_cx="true"
     inkscape:r_cy="true">
    <path
       inkscape:connector-curvature="0"
       transform="translate(-29.75546,19)"
       sodipodi:nodetypes="cccccc"
       id="path2960"
       d="m 17.34116,32.5 5.625,-5.625 20.093749,-9.75 c 3.25,-1.25 5.1875,3.375 2.3125,5 L 25.34116,31.5 Z"
       style="color:#000000;display:inline;overflow:visible;visibility:visible;fill:#cb9022;fill-opacity:1;fill-rule:evenodd;stroke:#5c410c;stroke-width:0.357123;stroke-linecap:butt;stroke-linejoin:miter;stroke-miterlimit:4;stroke-dasharray:none;stroke-dashoffset:0;stroke-opacity:1;marker:none;marker-start:none;marker-mid:none;marker-end:none"
       inkscape:r_cx="true"
       inkscape:r_cy="true" />
    <path
       inkscape:connector-curvature="0"
       transform="translate(-29.75546,19)"
       style="color:#000000;display:inline;overflow:visible;visibility:visible;fill:url(#linearGradient2554);fill-opacity:1;fill-rule:evenodd;stroke:none;stroke-width:3.77142;stroke-linecap:butt;stroke-linejoin:miter;stroke-miterlimit:4;stroke-dasharray:none;stroke-dashoffset:0;stroke-opacity:1;marker:none;marker-start:none;marker-mid:none;marker-end:none"
       d="m 38.330708,20 c 0,0 1.4375,0.09375 2,1.34375 0.579493,1.287761 0,2.65625 0,2.65625 l 5.03125,-2.46875 c 0,0 1.452032,-0.881367 0.65625,-2.84375 -0.784912,-1.935577 -2.6875,-1.15625 -2.6875,-1.15625 z"
       id="path2964"
       sodipodi:nodetypes="czcczcc"
       inkscape:r_cx="true"
       inkscape:r_cy="true" />
    <path
       inkscape:connector-curvature="0"
       transform="translate(-29.75546,19)"
       sodipodi:nodetypes="czcczcc"
       id="path2962"
       d="m 38.330708,20 c 0,0 1.4375,0.09375 2,1.34375 0.579493,1.287761 0,2.65625 0,2.65625 l 2,-1 c 0,0 0.827032,-1.318867 0.21875,-2.6875 C 41.924458,18.90625 40.330708,19 40.330708,19 Z"
       style="color:#000000;display:inline;overflow:visible;visibility:visible;fill:url(#linearGradient2556);fill-opacity:1;fill-rule:evenodd;stroke:none;stroke-width:3.77142;stroke-linecap:butt;stroke-linejoin:miter;stroke-miterlimit:4;stroke-dasharray:none;stroke-dashoffset:0;stroke-opacity:1;marker:none;marker-start:none;marker-mid:none;marker-end:none"
       inkscape:r_cx="true"
       inkscape:r_cy="true" />
    <path
       inkscape:connector-curvature="0"
       transform="translate(-29.75546,19)"
       sodipodi:nodetypes="cccc"
       id="path2982"
       d="m 18.768208,31.78125 4.5,-4.5 c 1.5,0.8125 2.28125,2.15625 1.875,3.71875 z"
       style="color:#000000;display:inline;overflow:visible;visibility:visible;fill:url(#radialGradient2558);fill-opacity:1;fill-rule:evenodd;stroke:none;stroke-width:3.77142;stroke-linecap:butt;stroke-linejoin:miter;stroke-miterlimit:4;stroke-dasharray:none;stroke-dashoffset:0;stroke-opacity:1;marker:none;marker-start:none;marker-mid:none;marker-end:none"
       inkscape:r_cx="true"
       inkscape:r_cy="true" />
    <path
       inkscape:connector-curvature="0"
       transform="translate(-29.75546,19)"
       sodipodi:nodetypes="cccc"
       id="path2992"
       d="m 20.111958,30.375 -1.625,1.59375 2.34375,-0.3125 c 0.21875,-0.71875 -0.1875,-1.0625 -0.71875,-1.28125 z"
       style="color:#000000;display:inline;overflow:visible;visibility:visible;fill:url(#linearGradient2560);fill-opacity:1;fill-rule:evenodd;stroke:none;stroke-width:3.77142;stroke-linecap:butt;stroke-linejoin:miter;stroke-miterlimit:4;stroke-dasharray:none;stroke-dashoffset:0;stroke-opacity:1;marker:none;marker-start:none;marker-mid:none;marker-end:none"
       inkscape:r_cx="true"
       inkscape:r_cy="true" />
    <path
       inkscape:connector-curvature="0"
       transform="translate(-29.75546,19)"
       sodipodi:nodetypes="ccccc"
       id="path3002"
       d="m 23.268208,27.25 1.5625,1.25 15.38734,-7.31867 c -0.444432,-0.856044 -1.241767,-1.084597 -1.903379,-1.162262 z"
       style="color:#000000;display:inline;overflow:visible;visibility:visible;fill:#ffffff;fill-opacity:0.363636;fill-rule:evenodd;stroke:none;stroke-width:3.77142;stroke-linecap:butt;stroke-linejoin:miter;stroke-miterlimit:4;stroke-dasharray:none;stroke-dashoffset:0;stroke-opacity:1;marker:none;marker-start:none;marker-mid:none;marker-end:none"
       inkscape:r_cx="true"
       inkscape:r_cy="true" />
    <path
       inkscape:connector-curvature="0"
       transform="translate(-29.75546,19)"
       sodipodi:nodetypes="ccccc"
       id="path3004"
       d="m 25.143208,31.0625 0.1875,-0.75 15.23109,-7.1296 c 0,0 -0.11016,0.613627 -0.215879,0.74935 z"
       style="color:#000000;display:inline;overflow:visible;visibility:visible;fill:#000000;fill-opacity:0.363636;fill-rule:evenodd;stroke:none;stroke-width:3.77142;stroke-linecap:butt;stroke-linejoin:miter;stroke-miterlimit:4;stroke-dasharray:none;stroke-dashoffset:0;stroke-opacity:1;marker:none;marker-start:none;marker-mid:none;marker-end:none"
       inkscape:r_cx="true"
       inkscape:r_cy="true" />
  </g>
</svg>
